<?xml version="1.0" encoding="UTF-8"?>
<!DOCTYPE svg PUBLIC "-//W3C//DTD SVG 1.1//EN" "http://www.w3.org/Graphics/SVG/1.1/DTD/svg11.dtd">
<svg xmlns="http://www.w3.org/2000/svg" xmlns:xlink="http://www.w3.org/1999/xlink" version="1.1" width="822px" height="938px" viewBox="-0.5 -0.5 822 938"><defs><clipPath id="mx-clip-354-349-152-26-0"><rect x="354" y="349" width="152" height="26"/></clipPath><clipPath id="mx-clip-84-489-152-26-0"><rect x="84" y="489" width="152" height="26"/></clipPath><clipPath id="mx-clip-84-515-152-26-0"><rect x="84" y="515" width="152" height="26"/></clipPath><clipPath id="mx-clip-84-541-152-26-0"><rect x="84" y="541" width="152" height="26"/></clipPath><clipPath id="mx-clip-84-567-152-26-0"><rect x="84" y="567" width="152" height="26"/></clipPath><clipPath id="mx-clip-4-690-152-26-0"><rect x="4" y="690" width="152" height="26"/></clipPath><clipPath id="mx-clip-4-716-152-26-0"><rect x="4" y="716" width="152" height="26"/></clipPath><clipPath id="mx-clip-4-742-152-26-0"><rect x="4" y="742" width="152" height="26"/></clipPath><clipPath id="mx-clip-174-690-152-26-0"><rect x="174" y="690" width="152" height="26"/></clipPath><clipPath id="mx-clip-174-716-152-26-0"><rect x="174" y="716" width="152" height="26"/></clipPath><clipPath id="mx-clip-174-742-152-26-0"><rect x="174" y="742" width="152" height="26"/></clipPath><clipPath id="mx-clip-374-679-152-26-0"><rect x="374" y="679" width="152" height="26"/></clipPath><clipPath id="mx-clip-374-705-152-26-0"><rect x="374" y="705" width="152" height="26"/></clipPath><clipPath id="mx-clip-374-731-152-26-0"><rect x="374" y="731" width="152" height="26"/></clipPath><clipPath id="mx-clip-374-757-152-26-0"><rect x="374" y="757" width="152" height="26"/></clipPath><clipPath id="mx-clip-374-783-152-26-0"><rect x="374" y="783" width="152" height="26"/></clipPath><clipPath id="mx-clip-374-809-152-26-0"><rect x="374" y="809" width="152" height="26"/></clipPath><clipPath id="mx-clip-374-835-152-26-0"><rect x="374" y="835" width="152" height="26"/></clipPath><clipPath id="mx-clip-374-861-152-26-0"><rect x="374" y="861" width="152" height="26"/></clipPath><clipPath id="mx-clip-374-887-152-26-0"><rect x="374" y="887" width="152" height="26"/></clipPath><clipPath id="mx-clip-374-913-152-26-0"><rect x="374" y="913" width="152" height="26"/></clipPath><clipPath id="mx-clip-174-849-152-26-0"><rect x="174" y="849" width="152" height="26"/></clipPath><clipPath id="mx-clip-174-875-152-26-0"><rect x="174" y="875" width="152" height="26"/></clipPath><clipPath id="mx-clip-174-901-152-26-0"><rect x="174" y="901" width="152" height="26"/></clipPath><clipPath id="mx-clip-474-489-152-26-0"><rect x="474" y="489" width="152" height="26"/></clipPath><clipPath id="mx-clip-474-515-152-26-0"><rect x="474" y="515" width="152" height="26"/></clipPath><clipPath id="mx-clip-474-541-152-26-0"><rect x="474" y="541" width="152" height="26"/></clipPath><clipPath id="mx-clip-474-567-152-26-0"><rect x="474" y="567" width="152" height="26"/></clipPath><clipPath id="mx-clip-664-489-152-26-0"><rect x="664" y="489" width="152" height="26"/></clipPath><clipPath id="mx-clip-664-515-152-26-0"><rect x="664" y="515" width="152" height="26"/></clipPath><clipPath id="mx-clip-664-541-152-26-0"><rect x="664" y="541" width="152" height="26"/></clipPath><clipPath id="mx-clip-664-567-152-26-0"><rect x="664" y="567" width="152" height="26"/></clipPath><clipPath id="mx-clip-664-675-152-26-0"><rect x="664" y="675" width="152" height="26"/></clipPath><clipPath id="mx-clip-429-31-152-26-0"><rect x="429" y="31" width="152" height="26"/></clipPath><clipPath id="mx-clip-429-57-152-26-0"><rect x="429" y="57" width="152" height="26"/></clipPath><clipPath id="mx-clip-429-91-152-26-0"><rect x="429" y="91" width="152" height="26"/></clipPath><clipPath id="mx-clip-429-117-152-26-0"><rect x="429" y="117" width="152" height="26"/></clipPath><clipPath id="mx-clip-429-143-152-26-0"><rect x="429" y="143" width="152" height="26"/></clipPath><clipPath id="mx-clip-429-169-152-26-0"><rect x="429" y="169" width="152" height="26"/></clipPath><clipPath id="mx-clip-429-195-152-26-0"><rect x="429" y="195" width="152" height="26"/></clipPath><clipPath id="mx-clip-429-221-152-26-0"><rect x="429" y="221" width="152" height="26"/></clipPath><clipPath id="mx-clip-429-247-152-26-0"><rect x="429" y="247" width="152" height="26"/></clipPath><clipPath id="mx-clip-279-39-302-26-0"><rect x="279" y="39" width="302" height="26"/></clipPath><clipPath id="mx-clip-279-65-302-26-0"><rect x="279" y="65" width="302" height="26"/></clipPath><clipPath id="mx-clip-279-91-302-26-0"><rect x="279" y="91" width="302" height="26"/></clipPath><clipPath id="mx-clip-279-117-302-26-0"><rect x="279" y="117" width="302" height="26"/></clipPath><clipPath id="mx-clip-279-143-302-26-0"><rect x="279" y="143" width="302" height="26"/></clipPath><clipPath id="mx-clip-279-169-302-26-0"><rect x="279" y="169" width="302" height="26"/></clipPath><clipPath id="mx-clip-279-195-302-26-0"><rect x="279" y="195" width="302" height="26"/></clipPath><clipPath id="mx-clip-279-221-302-26-0"><rect x="279" y="221" width="302" height="26"/></clipPath><clipPath id="mx-clip-279-247-302-26-0"><rect x="279" y="247" width="302" height="26"/></clipPath></defs><g><path d="M 430.08 310 L 430.08 290.08 L 430.08 298.08 L 430.08 289.99" fill="none" stroke="rgb(0, 0, 0)" stroke-miterlimit="10" pointer-events="stroke"/><path d="M 430.08 268.99 L 436.25 279.49 L 430.08 289.99 L 423.9 279.49 Z" fill="none" stroke="rgb(0, 0, 0)" stroke-miterlimit="10" pointer-events="all"/><path d="M 350 336 L 350 310 L 510 310 L 510 336" fill="rgb(255, 255, 255)" stroke="rgb(0, 0, 0)" stroke-miterlimit="10" pointer-events="all"/><path d="M 350 336 L 350 370 L 510 370 L 510 336" fill="none" stroke="rgb(0, 0, 0)" stroke-miterlimit="10" pointer-events="none"/><path d="M 350 336 L 510 336" fill="none" stroke="rgb(0, 0, 0)" stroke-miterlimit="10" pointer-events="none"/><g fill="rgb(0, 0, 0)" font-family="Helvetica" font-weight="bold" pointer-events="none" text-anchor="middle" font-size="13px"><text x="429.5" y="328.5">Object</text></g><path d="M 350 340 L 510 340" fill="none" stroke="rgb(0, 0, 0)" stroke-miterlimit="10" pointer-events="none"/><g fill="rgb(0, 0, 0)" font-family="Helvetica" pointer-events="none" clip-path="url(#mx-clip-354-349-152-26-0)" font-size="13px"><text x="355.5" y="362.5">+ transform()</text></g><path d="M 160.08 450 L 160.08 410.08 L 430.08 410.08 L 430.08 387.12" fill="none" stroke="rgb(0, 0, 0)" stroke-miterlimit="10" pointer-events="none"/><path d="M 430.08 371.12 L 438.08 387.12 L 422.08 387.12 Z" fill="none" stroke="rgb(0, 0, 0)" stroke-miterlimit="10" pointer-events="none"/><path d="M 80 476 L 80 450 L 240 450 L 240 476" fill="rgb(255, 255, 255)" stroke="rgb(0, 0, 0)" stroke-miterlimit="10" pointer-events="none"/><path d="M 80 476 L 80 588 L 240 588 L 240 476" fill="none" stroke="rgb(0, 0, 0)" stroke-miterlimit="10" pointer-events="none"/><path d="M 80 476 L 240 476" fill="none" stroke="rgb(0, 0, 0)" stroke-miterlimit="10" pointer-events="none"/><g fill="rgb(0, 0, 0)" font-family="Helvetica" font-weight="bold" pointer-events="none" text-anchor="middle" font-size="13px"><text x="159.5" y="468.5">Model</text></g><path d="M 80 480 L 240 480" fill="none" stroke="rgb(0, 0, 0)" stroke-miterlimit="10" pointer-events="none"/><g fill="rgb(0, 0, 0)" font-family="Helvetica" pointer-events="none" clip-path="url(#mx-clip-84-489-152-26-0)" font-size="13px"><text x="85.5" y="502.5">+ get_material()</text></g><g fill="rgb(0, 0, 0)" font-family="Helvetica" pointer-events="none" clip-path="url(#mx-clip-84-515-152-26-0)" font-size="13px"><text x="85.5" y="528.5">+ set_material()</text></g><g fill="rgb(0, 0, 0)" font-family="Helvetica" pointer-events="none" clip-path="url(#mx-clip-84-541-152-26-0)" font-size="13px"><text x="85.5" y="554.5">+ get_center()</text></g><g fill="rgb(0, 0, 0)" font-family="Helvetica" pointer-events="none" clip-path="url(#mx-clip-84-567-152-26-0)" font-size="13px"><text x="85.5" y="580.5">+ ray_intersect()</text></g><path d="M 80 651 L 80.08 620.08 L 160.08 620.08 L 160.08 605.12" fill="none" stroke="rgb(0, 0, 0)" stroke-miterlimit="10" pointer-events="none"/><path d="M 160.08 589.12 L 168.08 605.12 L 152.08 605.12 Z" fill="none" stroke="rgb(0, 0, 0)" stroke-miterlimit="10" pointer-events="none"/><path d="M 0 677 L 0 651 L 160 651 L 160 677" fill="rgb(255, 255, 255)" stroke="rgb(0, 0, 0)" stroke-miterlimit="10" pointer-events="none"/><path d="M 0 677 L 0 763 L 160 763 L 160 677" fill="none" stroke="rgb(0, 0, 0)" stroke-miterlimit="10" pointer-events="none"/><path d="M 0 677 L 160 677" fill="none" stroke="rgb(0, 0, 0)" stroke-miterlimit="10" pointer-events="none"/><g fill="rgb(0, 0, 0)" font-family="Helvetica" font-weight="bold" pointer-events="none" text-anchor="middle" font-size="13px"><text x="79.5" y="669.5">Sphere</text></g><path d="M 0 681 L 160 681" fill="none" stroke="rgb(0, 0, 0)" stroke-miterlimit="10" pointer-events="none"/><g fill="rgb(0, 0, 0)" font-family="Helvetica" pointer-events="none" clip-path="url(#mx-clip-4-690-152-26-0)" font-size="13px"><text x="5.5" y="703.5">+ get_radius()</text></g><g fill="rgb(0, 0, 0)" font-family="Helvetica" pointer-events="none" clip-path="url(#mx-clip-4-716-152-26-0)" font-size="13px"><text x="5.5" y="729.5">+ set_radius()</text></g><g fill="rgb(0, 0, 0)" font-family="Helvetica" pointer-events="none" clip-path="url(#mx-clip-4-742-152-26-0)" font-size="13px"><text x="5.5" y="755.5">+ set_center()</text></g><path d="M 250 651 L 250.08 620.08 L 160.08 620.08 L 160.08 605.12" fill="none" stroke="rgb(0, 0, 0)" stroke-miterlimit="10" pointer-events="none"/><path d="M 160.08 589.12 L 168.08 605.12 L 152.08 605.12 Z" fill="none" stroke="rgb(0, 0, 0)" stroke-miterlimit="10" pointer-events="none"/><path d="M 170 677 L 170 651 L 330 651 L 330 677" fill="rgb(255, 255, 255)" stroke="rgb(0, 0, 0)" stroke-miterlimit="10" pointer-events="none"/><path d="M 170 677 L 170 763 L 330 763 L 330 677" fill="none" stroke="rgb(0, 0, 0)" stroke-miterlimit="10" pointer-events="none"/><path d="M 170 677 L 330 677" fill="none" stroke="rgb(0, 0, 0)" stroke-miterlimit="10" pointer-events="none"/><g fill="rgb(0, 0, 0)" font-family="Helvetica" font-weight="bold" pointer-events="none" text-anchor="middle" font-size="13px"><text x="249.5" y="669.5">Polyhodron</text></g><path d="M 170 681 L 330 681" fill="none" stroke="rgb(0, 0, 0)" stroke-miterlimit="10" pointer-events="none"/><g fill="rgb(0, 0, 0)" font-family="Helvetica" pointer-events="none" clip-path="url(#mx-clip-174-690-152-26-0)" font-size="13px"><text x="175.5" y="703.5">+ get_points()</text></g><g fill="rgb(0, 0, 0)" font-family="Helvetica" pointer-events="none" clip-path="url(#mx-clip-174-716-152-26-0)" font-size="13px"><text x="175.5" y="729.5">+ set_points()</text></g><g fill="rgb(0, 0, 0)" font-family="Helvetica" pointer-events="none" clip-path="url(#mx-clip-174-742-152-26-0)" font-size="13px"><text x="175.5" y="755.5">+ set_polygons()</text></g><path d="M 440.08 640 L 440.08 489 L 261.99 489" fill="none" stroke="rgb(0, 0, 0)" stroke-miterlimit="10" pointer-events="none"/><path d="M 240.99 489 L 251.49 482.82 L 261.99 489 L 251.49 495.18 Z" fill="none" stroke="rgb(0, 0, 0)" stroke-miterlimit="10" pointer-events="none"/><path d="M 370 666 L 370 640 L 530 640 L 530 666" fill="rgb(255, 255, 255)" stroke="rgb(0, 0, 0)" stroke-miterlimit="10" pointer-events="none"/><path d="M 370 666 L 370 934 L 530 934 L 530 666" fill="none" stroke="rgb(0, 0, 0)" stroke-miterlimit="10" pointer-events="none"/><path d="M 370 666 L 530 666" fill="none" stroke="rgb(0, 0, 0)" stroke-miterlimit="10" pointer-events="none"/><g fill="rgb(0, 0, 0)" font-family="Helvetica" font-weight="bold" pointer-events="none" text-anchor="middle" font-size="13px"><text x="449.5" y="658.5">Material</text></g><path d="M 370 670 L 530 670" fill="none" stroke="rgb(0, 0, 0)" stroke-miterlimit="10" pointer-events="none"/><g fill="rgb(0, 0, 0)" font-family="Helvetica" pointer-events="none" clip-path="url(#mx-clip-374-679-152-26-0)" font-size="13px"><text x="375.5" y="692.5">+ get_refractive_index()</text></g><g fill="rgb(0, 0, 0)" font-family="Helvetica" pointer-events="none" clip-path="url(#mx-clip-374-705-152-26-0)" font-size="13px"><text x="375.5" y="718.5">+ set_refractive_index</text></g><g fill="rgb(0, 0, 0)" font-family="Helvetica" pointer-events="none" clip-path="url(#mx-clip-374-731-152-26-0)" font-size="13px"><text x="375.5" y="744.5">+ get_spec_exp()</text></g><g fill="rgb(0, 0, 0)" font-family="Helvetica" pointer-events="none" clip-path="url(#mx-clip-374-757-152-26-0)" font-size="13px"><text x="375.5" y="770.5">+ set_spec_exp()</text></g><g fill="rgb(0, 0, 0)" font-family="Helvetica" pointer-events="none" clip-path="url(#mx-clip-374-783-152-26-0)" font-size="13px"><text x="375.5" y="796.5">+ get_albedo()</text></g><g fill="rgb(0, 0, 0)" font-family="Helvetica" pointer-events="none" clip-path="url(#mx-clip-374-809-152-26-0)" font-size="13px"><text x="375.5" y="822.5">+ set_albedo()</text></g><g fill="rgb(0, 0, 0)" font-family="Helvetica" pointer-events="none" clip-path="url(#mx-clip-374-835-152-26-0)" font-size="13px"><text x="375.5" y="848.5">+ get_difColor()</text></g><g fill="rgb(0, 0, 0)" font-family="Helvetica" pointer-events="none" clip-path="url(#mx-clip-374-861-152-26-0)" font-size="13px"><text x="375.5" y="874.5">+ set_difColor()</text></g><g fill="rgb(0, 0, 0)" font-family="Helvetica" pointer-events="none" clip-path="url(#mx-clip-374-887-152-26-0)" font-size="13px"><text x="375.5" y="900.5">+ get_specColor()</text></g><g fill="rgb(0, 0, 0)" font-family="Helvetica" pointer-events="none" clip-path="url(#mx-clip-374-913-152-26-0)" font-size="13px"><text x="375.5" y="926.5">+ set_specColor()</text></g><path d="M 250.08 810 L 250.08 790.08 L 250.08 793 L 250.08 784.99" fill="none" stroke="rgb(0, 0, 0)" stroke-miterlimit="10" pointer-events="none"/><path d="M 250.08 763.99 L 256.25 774.49 L 250.08 784.99 L 243.9 774.49 Z" fill="none" stroke="rgb(0, 0, 0)" stroke-miterlimit="10" pointer-events="none"/><path d="M 170 836 L 170 810 L 330 810 L 330 836" fill="rgb(255, 255, 255)" stroke="rgb(0, 0, 0)" stroke-miterlimit="10" pointer-events="none"/><path d="M 170 836 L 170 922 L 330 922 L 330 836" fill="none" stroke="rgb(0, 0, 0)" stroke-miterlimit="10" pointer-events="none"/><path d="M 170 836 L 330 836" fill="none" stroke="rgb(0, 0, 0)" stroke-miterlimit="10" pointer-events="none"/><g fill="rgb(0, 0, 0)" font-family="Helvetica" font-weight="bold" pointer-events="none" text-anchor="middle" font-size="13px"><text x="249.5" y="828.5">Polygon</text></g><path d="M 170 840 L 330 840" fill="none" stroke="rgb(0, 0, 0)" stroke-miterlimit="10" pointer-events="none"/><g fill="rgb(0, 0, 0)" font-family="Helvetica" pointer-events="none" clip-path="url(#mx-clip-174-849-152-26-0)" font-size="13px"><text x="175.5" y="862.5">+ ray_intersect()</text></g><g fill="rgb(0, 0, 0)" font-family="Helvetica" pointer-events="none" clip-path="url(#mx-clip-174-875-152-26-0)" font-size="13px"><text x="175.5" y="888.5">+ calc_normal()</text></g><g fill="rgb(0, 0, 0)" font-family="Helvetica" pointer-events="none" clip-path="url(#mx-clip-174-901-152-26-0)" font-size="13px"><text x="175.5" y="914.5">+ is_inside()</text></g><path d="M 550.08 450 L 550.08 410.08 L 430.08 410.08 L 430.08 387.12" fill="none" stroke="rgb(0, 0, 0)" stroke-miterlimit="10" pointer-events="none"/><path d="M 430.08 371.12 L 438.08 387.12 L 422.08 387.12 Z" fill="none" stroke="rgb(0, 0, 0)" stroke-miterlimit="10" pointer-events="none"/><path d="M 470 476 L 470 450 L 630 450 L 630 476" fill="rgb(255, 255, 255)" stroke="rgb(0, 0, 0)" stroke-miterlimit="10" pointer-events="none"/><path d="M 470 476 L 470 588 L 630 588 L 630 476" fill="none" stroke="rgb(0, 0, 0)" stroke-miterlimit="10" pointer-events="none"/><path d="M 470 476 L 630 476" fill="none" stroke="rgb(0, 0, 0)" stroke-miterlimit="10" pointer-events="none"/><g fill="rgb(0, 0, 0)" font-family="Helvetica" font-weight="bold" pointer-events="none" text-anchor="middle" font-size="13px"><text x="549.5" y="468.5">Camera</text></g><path d="M 470 480 L 630 480" fill="none" stroke="rgb(0, 0, 0)" stroke-miterlimit="10" pointer-events="none"/><g fill="rgb(0, 0, 0)" font-family="Helvetica" pointer-events="none" clip-path="url(#mx-clip-474-489-152-26-0)" font-size="13px"><text x="475.5" y="502.5">+ get_position()</text></g><g fill="rgb(0, 0, 0)" font-family="Helvetica" pointer-events="none" clip-path="url(#mx-clip-474-515-152-26-0)" font-size="13px"><text x="475.5" y="528.5">+ set_position()</text></g><g fill="rgb(0, 0, 0)" font-family="Helvetica" pointer-events="none" clip-path="url(#mx-clip-474-541-152-26-0)" font-size="13px"><text x="475.5" y="554.5">+ get_direction()</text></g><g fill="rgb(0, 0, 0)" font-family="Helvetica" pointer-events="none" clip-path="url(#mx-clip-474-567-152-26-0)" font-size="13px"><text x="475.5" y="580.5">+ set_direction()</text></g><path d="M 740.08 450 L 740.08 410.08 L 430.08 410.08 L 430.08 387.12" fill="none" stroke="rgb(0, 0, 0)" stroke-miterlimit="10" pointer-events="none"/><path d="M 430.08 371.12 L 438.08 387.12 L 422.08 387.12 Z" fill="none" stroke="rgb(0, 0, 0)" stroke-miterlimit="10" pointer-events="none"/><path d="M 660 476 L 660 450 L 820 450 L 820 476" fill="rgb(255, 255, 255)" stroke="rgb(0, 0, 0)" stroke-miterlimit="10" pointer-events="none"/><path d="M 660 476 L 660 588 L 820 588 L 820 476" fill="none" stroke="rgb(0, 0, 0)" stroke-miterlimit="10" pointer-events="none"/><path d="M 660 476 L 820 476" fill="none" stroke="rgb(0, 0, 0)" stroke-miterlimit="10" pointer-events="none"/><g fill="rgb(0, 0, 0)" font-family="Helvetica" font-weight="bold" pointer-events="none" text-anchor="middle" font-size="13px"><text x="739.5" y="468.5">BaseLight</text></g><path d="M 660 480 L 820 480" fill="none" stroke="rgb(0, 0, 0)" stroke-miterlimit="10" pointer-events="none"/><g fill="rgb(0, 0, 0)" font-family="Helvetica" pointer-events="none" clip-path="url(#mx-clip-664-489-152-26-0)" font-size="13px"><text x="665.5" y="502.5">+ get_position()</text></g><g fill="rgb(0, 0, 0)" font-family="Helvetica" pointer-events="none" clip-path="url(#mx-clip-664-515-152-26-0)" font-size="13px"><text x="665.5" y="528.5">+ set_position()</text></g><g fill="rgb(0, 0, 0)" font-family="Helvetica" pointer-events="none" clip-path="url(#mx-clip-664-541-152-26-0)" font-size="13px"><text x="665.5" y="554.5">+ get_intensity()</text></g><g fill="rgb(0, 0, 0)" font-family="Helvetica" pointer-events="none" clip-path="url(#mx-clip-664-567-152-26-0)" font-size="13px"><text x="665.5" y="580.5">+ set_intensity()</text></g><path d="M 740.08 636 L 740.08 616.08 L 740.08 618.08 L 740.08 605.12" fill="none" stroke="rgb(0, 0, 0)" stroke-miterlimit="10" pointer-events="none"/><path d="M 740.08 589.12 L 748.08 605.12 L 732.08 605.12 Z" fill="none" stroke="rgb(0, 0, 0)" stroke-miterlimit="10" pointer-events="none"/><path d="M 660 662 L 660 636 L 820 636 L 820 662" fill="rgb(255, 255, 255)" stroke="rgb(0, 0, 0)" stroke-miterlimit="10" pointer-events="none"/><path d="M 660 662 L 660 696 L 820 696 L 820 662" fill="none" stroke="rgb(0, 0, 0)" stroke-miterlimit="10" pointer-events="none"/><path d="M 660 662 L 820 662" fill="none" stroke="rgb(0, 0, 0)" stroke-miterlimit="10" pointer-events="none"/><g fill="rgb(0, 0, 0)" font-family="Helvetica" font-weight="bold" pointer-events="none" text-anchor="middle" font-size="13px"><text x="739.5" y="654.5">LightSource</text></g><path d="M 660 666 L 820 666" fill="none" stroke="rgb(0, 0, 0)" stroke-miterlimit="10" pointer-events="none"/><g fill="rgb(0, 0, 0)" font-family="Helvetica" pointer-events="none" clip-path="url(#mx-clip-664-675-152-26-0)" font-size="13px"><text x="665.5" y="688.5">+ transform()</text></g><path d="M 425 26 L 425 0 L 585 0 L 585 26" fill="rgb(255, 255, 255)" stroke="none" pointer-events="none"/><g fill="rgb(0, 0, 0)" font-family="Helvetica" font-weight="bold" pointer-events="none" text-anchor="middle" font-size="13px"><text x="504.5" y="18.5">Classname</text></g><g fill="rgb(0, 0, 0)" font-family="Helvetica" pointer-events="none" clip-path="url(#mx-clip-429-31-152-26-0)" font-size="13px"><text x="430.5" y="44.5">+ added_model()</text></g><g fill="rgb(0, 0, 0)" font-family="Helvetica" pointer-events="none" clip-path="url(#mx-clip-429-57-152-26-0)" font-size="13px"><text x="430.5" y="70.5">+ remove_model()</text></g><g fill="rgb(0, 0, 0)" font-family="Helvetica" pointer-events="none" clip-path="url(#mx-clip-429-91-152-26-0)" font-size="13px"><text x="430.5" y="104.5">+ transform_model()</text></g><g fill="rgb(0, 0, 0)" font-family="Helvetica" pointer-events="none" clip-path="url(#mx-clip-429-117-152-26-0)" font-size="13px"><text x="430.5" y="130.5">+ get_pos_model()</text></g><g fill="rgb(0, 0, 0)" font-family="Helvetica" pointer-events="none" clip-path="url(#mx-clip-429-143-152-26-0)" font-size="13px"><text x="430.5" y="156.5">+ added_light()</text></g><g fill="rgb(0, 0, 0)" font-family="Helvetica" pointer-events="none" clip-path="url(#mx-clip-429-169-152-26-0)" font-size="13px"><text x="430.5" y="182.5">+ remove_light()</text></g><g fill="rgb(0, 0, 0)" font-family="Helvetica" pointer-events="none" clip-path="url(#mx-clip-429-195-152-26-0)" font-size="13px"><text x="430.5" y="208.5">+ trasform_light()</text></g><g fill="rgb(0, 0, 0)" font-family="Helvetica" pointer-events="none" clip-path="url(#mx-clip-429-221-152-26-0)" font-size="13px"><text x="430.5" y="234.5">+ get_pos_light()</text></g><g fill="rgb(0, 0, 0)" font-family="Helvetica" pointer-events="none" clip-path="url(#mx-clip-429-247-152-26-0)" font-size="13px"><text x="430.5" y="260.5">+ change_fig_color()</text></g><path d="M 275 26 L 275 0 L 585 0 L 585 26" fill="rgb(255, 255, 255)" stroke="rgb(0, 0, 0)" stroke-miterlimit="10" pointer-events="none"/><path d="M 275 26 L 275 268 L 585 268 L 585 26" fill="none" stroke="rgb(0, 0, 0)" stroke-miterlimit="10" pointer-events="none"/><path d="M 275 26 L 585 26" fill="none" stroke="rgb(0, 0, 0)" stroke-miterlimit="10" pointer-events="none"/><g fill="rgb(0, 0, 0)" font-family="Helvetica" font-weight="bold" pointer-events="none" text-anchor="middle" font-size="13px"><text x="429.5" y="18.5">Picture</text></g><path d="M 275 30 L 585 30" fill="none" stroke="rgb(0, 0, 0)" stroke-miterlimit="10" pointer-events="none"/><g fill="rgb(0, 0, 0)" font-family="Helvetica" pointer-events="none" clip-path="url(#mx-clip-279-39-302-26-0)" font-size="13px"><text x="280.5" y="52.5">+ get_backColor()</text></g><g fill="rgb(0, 0, 0)" font-family="Helvetica" pointer-events="none" clip-path="url(#mx-clip-279-65-302-26-0)" font-size="13px"><text x="280.5" y="78.5">+ set_backColor()</text></g><g fill="rgb(0, 0, 0)" font-family="Helvetica" pointer-events="none" clip-path="url(#mx-clip-279-91-302-26-0)" font-size="13px"><text x="280.5" y="104.5">+ get_mainSphereColor()</text></g><g fill="rgb(0, 0, 0)" font-family="Helvetica" pointer-events="none" clip-path="url(#mx-clip-279-117-302-26-0)" font-size="13px"><text x="280.5" y="130.5">+ set_refIndex()</text></g><g fill="rgb(0, 0, 0)" font-family="Helvetica" pointer-events="none" clip-path="url(#mx-clip-279-143-302-26-0)" font-size="13px"><text x="280.5" y="156.5">+ set_transparient()</text></g><g fill="rgb(0, 0, 0)" font-family="Helvetica" pointer-events="none" clip-path="url(#mx-clip-279-169-302-26-0)" font-size="13px"><text x="280.5" y="182.5">+ move_camera()</text></g><g fill="rgb(0, 0, 0)" font-family="Helvetica" pointer-events="none" clip-path="url(#mx-clip-279-195-302-26-0)" font-size="13px"><text x="280.5" y="208.5">+ get_cam_pos()</text></g><g fill="rgb(0, 0, 0)" font-family="Helvetica" pointer-events="none" clip-path="url(#mx-clip-279-221-302-26-0)" font-size="13px"><text x="280.5" y="234.5">+ drawingFigure()</text></g><g fill="rgb(0, 0, 0)" font-family="Helvetica" pointer-events="none" clip-path="url(#mx-clip-279-247-302-26-0)" font-size="13px"><text x="280.5" y="260.5">+ drawThr()</text></g></g></svg>